# xmcd
#
# Track frame offsets:
#	182
#	12160
#	27625
#	39152
#	56287
#	78175
#	95835
#	110510
#	124052
#	145487
#	165705
#	177235
#	197250
#	209175
#	227272
#	244810
#	262620
#	280665
#	287175
#	308967
#
# Disc length: 4299 seconds
#
# Revision: 2
# Processed by: cddbd v1.5.1PL0 Copyright (c) Steve Scherf et al.
# Submitted via: dBpowerAMP V4.0
#
DISCID=1210c914
DTITLE=Lightnin Hopkins - 20 Reflective Recordings (Lightnin' Hopkins)
DYEAR=1900
DGENRE=blues
TTITLE0=Just Sittin Down Thinkin'
TTITLE1=Don't Keep My Baby Long
TTITLE2=Tell Me Pretty Mama
TTITLE3=Bad Luck And Trouble
TTITLE4=Needed Time
TTITLE5=Last Affairs
TTITLE6=Santa Fe Blues
TTITLE7=Someday
TTITLE8=Jake Head Boogie
TTITLE9=Glory Be
TTITLE10=Sometimes She Will
TTITLE11=Shine On Moon
TTITLE12=Have You Ever Loved A Woman
TTITLE13=Shake That Thing
TTITLE14=I'm Leaving You Now
TTITLE15=Walk A Long Time
TTITLE16=Bring Me My Shotgun
TTITLE17=Just Pickin'
TTITLE18=Last Night
TTITLE19=Mojo Hand
EXTD=
EXTT0=
EXTT1=
EXTT2=
EXTT3=
EXTT4=
EXTT5=
EXTT6=
EXTT7=
EXTT8=
EXTT9=
EXTT10=
EXTT11=
EXTT12=
EXTT13=
EXTT14=
EXTT15=
EXTT16=
EXTT17=
EXTT18=
EXTT19=
PLAYORDER=
